<?xml version="1.0" standalone="no"?>
<!DOCTYPE svg PUBLIC "-//W3C//DTD SVG 20010904//EN"
 "http://www.w3.org/TR/2001/REC-SVG-20010904/DTD/svg10.dtd">
<svg version="1.0" xmlns="http://www.w3.org/2000/svg"
 width="256.000000pt" height="256.000000pt" viewBox="0 0 256.000000 256.000000"
 preserveAspectRatio="xMidYMid meet">

<g transform="translate(0.000000,256.000000) scale(0.100000,-0.100000)"
fill="#000000" stroke="none">
<path d="M1626 2442 c-3 -6 -24 -13 -46 -17 -22 -4 -40 -10 -40 -14 0 -4 -173
-15 -384 -25 -211 -10 -399 -21 -418 -25 -24 -5 -38 -16 -53 -44 -18 -34 -19
-38 -3 -53 22 -22 35 -12 43 35 4 23 13 42 23 46 34 13 283 24 534 25 l256 0
11 -30 c14 -41 5 -83 -34 -155 -18 -33 -35 -71 -39 -85 -3 -14 -23 -44 -44
-67 -27 -31 -46 -43 -71 -45 -33 -3 -34 -1 -51 50 -11 33 -33 70 -56 94 -37
37 -42 39 -87 35 -82 -7 -135 -83 -102 -146 11 -23 13 -36 5 -50 -7 -14 -6
-21 3 -24 8 -3 6 -10 -8 -21 -19 -15 -19 -15 17 -16 32 0 36 -2 30 -22 -5 -22
-4 -22 15 -5 26 23 30 22 37 -13 3 -17 16 -41 29 -54 18 -17 23 -32 19 -54 -3
-26 7 -41 98 -133 101 -103 123 -136 134 -194 2 -16 8 -43 12 -58 5 -20 1 -33
-11 -47 -23 -25 -45 -212 -28 -239 7 -11 7 -35 0 -76 -5 -33 -10 -89 -11 -124
-1 -43 -6 -67 -17 -75 -8 -6 -41 -49 -74 -96 -33 -47 -83 -108 -112 -137 -56
-55 -119 -171 -103 -187 16 -16 11 -57 -11 -93 -18 -29 -21 -44 -15 -94 7 -73
20 -99 48 -99 36 0 57 30 84 116 33 109 55 141 258 383 53 62 99 125 102 140
3 14 17 64 31 110 l25 85 19 -49 c10 -26 18 -67 17 -90 0 -24 2 -47 5 -52 11
-18 -13 -223 -42 -353 -22 -101 -27 -137 -18 -142 17 -11 -8 -26 -53 -33 -92
-15 -110 -39 -57 -79 25 -18 42 -21 132 -21 57 0 107 3 110 7 4 4 9 35 12 70
3 35 23 145 45 246 31 141 39 194 34 235 -10 81 -10 96 3 202 7 55 16 147 20
205 5 68 14 116 25 137 21 39 15 64 -26 116 -16 21 -31 48 -32 60 -1 12 -7 31
-13 42 -6 11 -13 34 -17 50 -17 74 -73 186 -132 265 -35 47 -64 89 -64 93 0 4
37 27 82 51 78 41 83 47 90 83 15 86 -1 402 -22 426 -4 5 -23 12 -41 17 -19 4
-41 11 -50 15 -10 3 -20 2 -23 -3z m41 -172 c9 -23 4 -77 -14 -161 -16 -72
-18 -76 -45 -77 -27 -1 -27 0 -14 26 16 33 33 107 42 187 7 65 17 91 22 60 2
-11 6 -27 9 -35z"/>
</g>
</svg>
